/////////////////////////////////////////////////////////////////////////////
// sfz definition file - MultiAttack.exs    by EXS2SFZ 1.1.7 - Beta v4 (macOS)

<control>
default_path=../Audio/MultiAttack/(201431 221055)/

<group>        // MultiAttack
<region> sample=MultiAttack-LLMW.aif amp_veltrack=0  key=36 lokey=36 hikey=36 lovel=1 hivel=18 loop_mode=loop_continuous loop_start=755 loop_end=122453
<region> sample=MultiAttack-F67W.aif amp_veltrack=0  key=36 lokey=36 hikey=36 lovel=19 hivel=35 loop_mode=loop_continuous loop_start=597 loop_end=118360
<region> sample=MultiAttack-HWCR.aif amp_veltrack=0  key=36 lokey=36 hikey=36 lovel=35 hivel=50 loop_mode=loop_continuous loop_start=546 loop_end=119602
<region> sample=MultiAttack-DK2O.aif amp_veltrack=0  key=36 lokey=36 hikey=36 lovel=50 hivel=65 loop_mode=loop_continuous loop_start=58670 loop_end=140641
<region> sample=MultiAttack-36KP.aif amp_veltrack=0  key=36 lokey=36 hikey=36 lovel=66 hivel=81 loop_mode=loop_continuous loop_start=4713 loop_end=131672
<region> sample=MultiAttack-7TPA.aif amp_veltrack=0  key=36 lokey=36 hikey=36 lovel=82 hivel=98 loop_mode=loop_continuous loop_start=9770 loop_end=141987
<region> sample=MultiAttack-OXOI.aif amp_veltrack=0  key=36 lokey=36 hikey=36 lovel=99 hivel=113 loop_mode=loop_continuous loop_start=7637 loop_end=43153
<region> sample=MultiAttack-X95O.aif amp_veltrack=0  key=36 lokey=36 hikey=36 lovel=112 hivel=127   loop_mode=loop_continuous loop_start=16816 loop_end=49674
<region> sample=MultiAttack-SLYD.aif amp_veltrack=0  key=37 lokey=37 hikey=37 lovel=1 hivel=18 loop_mode=loop_continuous loop_start=679 loop_end=64023
<region> sample=MultiAttack-4H55.aif amp_veltrack=0  key=37 lokey=37 hikey=37 lovel=19 hivel=35 loop_mode=loop_continuous loop_start=81749 loop_end=144237
<region> sample=MultiAttack-SH16.aif amp_veltrack=0  key=37 lokey=37 hikey=37 lovel=35 hivel=50 loop_mode=loop_continuous loop_start=19065 loop_end=65133
<region> sample=MultiAttack-RWHJ.aif amp_veltrack=0  key=37 lokey=37 hikey=37 lovel=50 hivel=65 loop_mode=loop_continuous loop_start=1321 loop_end=48549
<region> sample=MultiAttack-KJJT.aif amp_veltrack=0  key=37 lokey=37 hikey=37 lovel=66 hivel=81 loop_mode=loop_continuous loop_start=66927 loop_end=140580
<region> sample=MultiAttack-994G.aif amp_veltrack=0  key=37 lokey=37 hikey=37 lovel=82 hivel=98 loop_mode=loop_continuous loop_start=9933 loop_end=123538
<region> sample=MultiAttack-M91L.aif amp_veltrack=0  key=37 lokey=37 hikey=37 lovel=99 hivel=113 loop_mode=loop_continuous loop_start=19838 loop_end=122278
<region> sample=MultiAttack-9KI2.aif amp_veltrack=0  key=37 lokey=37 hikey=37 lovel=112 hivel=127   loop_mode=loop_continuous loop_start=67297 loop_end=140994
<region> sample=MultiAttack-QONJ.aif amp_veltrack=0  key=38 lokey=38 hikey=38 lovel=1 hivel=18 loop_mode=loop_continuous loop_start=598 loop_end=100817
<region> sample=MultiAttack-YBW7.aif amp_veltrack=0  key=38 lokey=38 hikey=38 lovel=19 hivel=35 loop_mode=loop_continuous loop_start=649 loop_end=92608
<region> sample=MultiAttack-BXTH.aif amp_veltrack=0  key=38 lokey=38 hikey=38 lovel=35 hivel=50 loop_mode=loop_continuous loop_start=1124 loop_end=135857
<region> sample=MultiAttack-89OT.aif amp_veltrack=0  key=38 lokey=38 hikey=38 lovel=50 hivel=65 loop_mode=loop_continuous loop_start=1572 loop_end=52755
<region> sample=MultiAttack-TMPI.aif amp_veltrack=0  key=38 lokey=38 hikey=38 lovel=66 hivel=81 loop_mode=loop_continuous loop_start=81488 loop_end=127350
<region> sample=MultiAttack-3W21.aif amp_veltrack=0  key=38 lokey=38 hikey=38 lovel=82 hivel=98 loop_mode=loop_continuous loop_start=7483 loop_end=45447
<region> sample=MultiAttack-0649.aif amp_veltrack=0  key=38 lokey=38 hikey=38 lovel=99 hivel=113 loop_mode=loop_continuous loop_start=16684 loop_end=63846
<region> sample=MultiAttack-OZT6.aif amp_veltrack=0  key=38 lokey=38 hikey=38 lovel=112 hivel=127   loop_mode=loop_continuous loop_start=18918 loop_end=56589
<region> sample=MultiAttack-OYF2.aif amp_veltrack=0  key=39 lokey=39 hikey=39 lovel=1 hivel=18 loop_mode=loop_continuous loop_start=35387 loop_end=138762
<region> sample=MultiAttack-F99P.aif amp_veltrack=0  key=39 lokey=39 hikey=39 lovel=19 hivel=35 loop_mode=loop_continuous loop_start=386 loop_end=102733
<region> sample=MultiAttack-8CUS.aif amp_veltrack=0  key=39 lokey=39 hikey=39 lovel=35 hivel=50 loop_mode=loop_continuous loop_start=60742 loop_end=126362
<region> sample=MultiAttack-TI1F.aif amp_veltrack=0  key=39 lokey=39 hikey=39 lovel=50 hivel=65 loop_mode=loop_continuous loop_start=1125 loop_end=48332
<region> sample=MultiAttack-0153.aif amp_veltrack=0  key=39 lokey=39 hikey=39 lovel=66 hivel=81 loop_mode=loop_continuous loop_start=4814 loop_end=107142
<region> sample=MultiAttack-GEJQ.aif amp_veltrack=0  key=39 lokey=39 hikey=39 lovel=82 hivel=98 loop_mode=loop_continuous loop_start=34193 loop_end=73072
<region> sample=MultiAttack-KQAO.aif amp_veltrack=0  key=39 lokey=39 hikey=39 lovel=99 hivel=113 loop_mode=loop_continuous loop_start=14482 loop_end=52265
<region> sample=MultiAttack-SNRS.aif amp_veltrack=0  key=39 lokey=39 hikey=39 lovel=112 hivel=127   loop_mode=loop_continuous loop_start=88585 loop_end=124162
<region> sample=MultiAttack-6JWJ.aif amp_veltrack=0  key=40 lokey=40 hikey=40 lovel=1 hivel=18 loop_mode=loop_continuous loop_start=80 loop_end=57043
<region> sample=MultiAttack-JI3B.aif amp_veltrack=0  key=40 lokey=40 hikey=40 lovel=19 hivel=35 loop_mode=loop_continuous loop_start=86947 loop_end=123628
<region> sample=MultiAttack-YFNS.aif amp_veltrack=0  key=40 lokey=40 hikey=40 lovel=35 hivel=50 loop_mode=loop_continuous loop_start=326 loop_end=62343
<region> sample=MultiAttack-3IO9.aif amp_veltrack=0  key=40 lokey=40 hikey=40 lovel=50 hivel=65 loop_mode=loop_continuous loop_start=16468 loop_end=143442
<region> sample=MultiAttack-VGUD.aif amp_veltrack=0  key=40 lokey=40 hikey=40 lovel=66 hivel=81 loop_mode=loop_continuous loop_start=5796 loop_end=101351
<region> sample=MultiAttack-PGX2.aif amp_veltrack=0  key=40 lokey=40 hikey=40 lovel=82 hivel=98 loop_mode=loop_continuous loop_start=9123 loop_end=111482
<region> sample=MultiAttack-DTDU.aif amp_veltrack=0  key=40 lokey=40 hikey=40 lovel=99 hivel=113 loop_mode=loop_continuous loop_start=24025 loop_end=87045
<region> sample=MultiAttack-3SBN.aif amp_veltrack=0  key=40 lokey=40 hikey=40 lovel=112 hivel=127   loop_mode=loop_continuous loop_start=58247 loop_end=93939
<region> sample=MultiAttack-EALR.aif amp_veltrack=0  key=41 lokey=41 hikey=41 lovel=1 hivel=18 loop_mode=loop_continuous loop_start=38676 loop_end=126848
<region> sample=MultiAttack-IHXK.aif amp_veltrack=0  key=41 lokey=41 hikey=41 lovel=19 hivel=35 loop_mode=loop_continuous loop_start=482 loop_end=44535
<region> sample=MultiAttack-IPPN.aif amp_veltrack=0  key=41 lokey=41 hikey=41 lovel=35 hivel=50 loop_mode=loop_continuous loop_start=66 loop_end=135400
<region> sample=MultiAttack-TZ41.aif amp_veltrack=0  key=41 lokey=41 hikey=41 lovel=50 hivel=65 loop_mode=loop_continuous loop_start=1600 loop_end=66048
<region> sample=MultiAttack-UQ1K.aif amp_veltrack=0  key=41 lokey=41 hikey=41 lovel=66 hivel=81 loop_mode=loop_continuous loop_start=4391 loop_end=39769
<region> sample=MultiAttack-Q66T.aif amp_veltrack=0  key=41 lokey=41 hikey=41 lovel=82 hivel=98 loop_mode=loop_continuous loop_start=10002 loop_end=116500
<region> sample=MultiAttack-WCWS.aif amp_veltrack=0  key=41 lokey=41 hikey=41 lovel=99 hivel=113 loop_mode=loop_continuous loop_start=10786 loop_end=40515
<region> sample=MultiAttack-W2FY.aif amp_veltrack=0  key=41 lokey=41 hikey=41 lovel=112 hivel=127   loop_mode=loop_continuous loop_start=34903 loop_end=65366
<region> sample=MultiAttack-PXT3.aif amp_veltrack=0  key=42 lokey=42 hikey=42 lovel=1 hivel=18 loop_mode=loop_continuous loop_start=701 loop_end=86767
<region> sample=MultiAttack-7ZYI.aif amp_veltrack=0  key=42 lokey=42 hikey=42 lovel=19 hivel=35 loop_mode=loop_continuous loop_start=792 loop_end=84064
<region> sample=MultiAttack-8ILV.aif amp_veltrack=0  key=42 lokey=42 hikey=42 lovel=35 hivel=50 loop_mode=loop_continuous loop_start=24661 loop_end=142439
<region> sample=MultiAttack-XON1.aif amp_veltrack=0  key=42 lokey=42 hikey=42 lovel=50 hivel=65 loop_mode=loop_continuous loop_start=1587 loop_end=86735
<region> sample=MultiAttack-65JM.aif amp_veltrack=0  key=42 lokey=42 hikey=42 lovel=66 hivel=81 loop_mode=loop_continuous loop_start=4768 loop_end=90821
<region> sample=MultiAttack-JP81.aif amp_veltrack=0  key=42 lokey=42 hikey=42 lovel=82 hivel=98 loop_mode=loop_continuous loop_start=58482 loop_end=143580
<region> sample=MultiAttack-VAWV.aif amp_veltrack=0  key=42 lokey=42 hikey=42 lovel=99 hivel=113 loop_mode=loop_continuous loop_start=23960 loop_end=91859
<region> sample=MultiAttack-QAIX.aif amp_veltrack=0  key=42 lokey=42 hikey=42 lovel=112 hivel=127   loop_mode=loop_continuous loop_start=40371 loop_end=74040
<region> sample=MultiAttack-RBDN.aif amp_veltrack=0  key=43 lokey=43 hikey=43 lovel=1 hivel=18 loop_mode=loop_continuous loop_start=493 loop_end=82812
<region> sample=MultiAttack-SZWJ.aif amp_veltrack=0  key=43 lokey=43 hikey=43 lovel=19 hivel=35 loop_mode=loop_continuous loop_start=595 loop_end=77435
<region> sample=MultiAttack-S427.aif amp_veltrack=0  key=43 lokey=43 hikey=43 lovel=35 hivel=50 loop_mode=loop_continuous loop_start=630 loop_end=104041
<region> sample=MultiAttack-0POO.aif amp_veltrack=0  key=43 lokey=43 hikey=43 lovel=50 hivel=65 loop_mode=loop_continuous loop_start=1250 loop_end=78950
<region> sample=MultiAttack-OVMU.aif amp_veltrack=0  key=43 lokey=43 hikey=43 lovel=66 hivel=81 loop_mode=loop_continuous loop_start=33786 loop_end=123036
<region> sample=MultiAttack-OUI8.aif amp_veltrack=0  key=43 lokey=43 hikey=43 lovel=82 hivel=98 loop_mode=loop_continuous loop_start=32075 loop_end=87687
<region> sample=MultiAttack-AZBM.aif amp_veltrack=0  key=43 lokey=43 hikey=43 lovel=99 hivel=113 loop_mode=loop_continuous loop_start=22066 loop_end=51200
<region> sample=MultiAttack-JIA8.aif amp_veltrack=0  key=43 lokey=43 hikey=43 lovel=112 hivel=127   loop_mode=loop_continuous loop_start=37359 loop_end=85933
<region> sample=MultiAttack-AAT9.aif amp_veltrack=0  key=44 lokey=44 hikey=44 lovel=1 hivel=18 loop_mode=loop_continuous loop_start=602 loop_end=78553
<region> sample=MultiAttack-USRZ.aif amp_veltrack=0  key=44 lokey=44 hikey=44 lovel=19 hivel=35 loop_mode=loop_continuous loop_start=639 loop_end=78546
<region> sample=MultiAttack-F8BQ.aif amp_veltrack=0  key=44 lokey=44 hikey=44 lovel=35 hivel=50 loop_mode=loop_continuous loop_start=589 loop_end=98068
<region> sample=MultiAttack-2D49.aif amp_veltrack=0  key=44 lokey=44 hikey=44 lovel=50 hivel=65 loop_mode=loop_continuous loop_start=67026 loop_end=142782
<region> sample=MultiAttack-PKH8.aif amp_veltrack=0  key=44 lokey=44 hikey=44 lovel=66 hivel=81 loop_mode=loop_continuous loop_start=64077 loop_end=141099
<region> sample=MultiAttack-YIAS.aif amp_veltrack=0  key=44 lokey=44 hikey=44 lovel=82 hivel=98 loop_mode=loop_continuous loop_start=66042 loop_end=140593
<region> sample=MultiAttack-VOO6.aif amp_veltrack=0  key=44 lokey=44 hikey=44 lovel=99 hivel=113 loop_mode=loop_continuous loop_start=80990 loop_end=134302
<region> sample=MultiAttack-N51K.aif amp_veltrack=0  key=44 lokey=44 hikey=44 lovel=112 hivel=127   loop_mode=loop_continuous loop_start=34433 loop_end=63689
<region> sample=MultiAttack-5KAV.aif amp_veltrack=0  key=45 lokey=45 hikey=45 lovel=1 hivel=18 loop_mode=loop_continuous loop_start=90106 loop_end=125547
<region> sample=MultiAttack-Y9CJ.aif amp_veltrack=0  key=45 lokey=45 hikey=45 lovel=19 hivel=35 loop_mode=loop_continuous loop_start=121 loop_end=70915
<region> sample=MultiAttack-VLON.aif amp_veltrack=0  key=45 lokey=45 hikey=45 lovel=35 hivel=50 loop_mode=loop_continuous loop_start=1019 loop_end=142567
<region> sample=MultiAttack-NMWP.aif amp_veltrack=0  key=45 lokey=45 hikey=45 lovel=50 hivel=65 loop_mode=loop_continuous loop_start=53914 loop_end=131334
<region> sample=MultiAttack-INV7.aif amp_veltrack=0  key=45 lokey=45 hikey=45 lovel=66 hivel=81 loop_mode=loop_continuous loop_start=5589 loop_end=77223
<region> sample=MultiAttack-FR2K.aif amp_veltrack=0  key=45 lokey=45 hikey=45 lovel=82 hivel=98 loop_mode=loop_continuous loop_start=20765 loop_end=138747
<region> sample=MultiAttack-41UT.aif amp_veltrack=0  key=45 lokey=45 hikey=45 lovel=99 hivel=113 loop_mode=loop_continuous loop_start=68244 loop_end=113870
<region> sample=MultiAttack-2HE9.aif amp_veltrack=0  key=45 lokey=45 hikey=45 lovel=112 hivel=127   loop_mode=loop_continuous loop_start=49536 loop_end=95592
<region> sample=MultiAttack-EW9B.aif amp_veltrack=0  key=46 lokey=46 hikey=46 lovel=1 hivel=18 loop_mode=loop_continuous loop_start=6138 loop_end=141966
<region> sample=MultiAttack-MZ9T.aif amp_veltrack=0  key=46 lokey=46 hikey=46 lovel=19 hivel=35 loop_mode=loop_continuous loop_start=15974 loop_end=143669
<region> sample=MultiAttack-CRWG.aif amp_veltrack=0  key=46 lokey=46 hikey=46 lovel=35 hivel=50 loop_mode=loop_continuous loop_start=77328 loop_end=141145
<region> sample=MultiAttack-LROE.aif amp_veltrack=0  key=46 lokey=46 hikey=46 lovel=50 hivel=65 loop_mode=loop_continuous loop_start=94308 loop_end=142500
<region> sample=MultiAttack-UOJ4.aif amp_veltrack=0  key=46 lokey=46 hikey=46 lovel=66 hivel=81 loop_mode=loop_continuous loop_start=77469 loop_end=144263
<region> sample=MultiAttack-ZYWQ.aif amp_veltrack=0  key=46 lokey=46 hikey=46 lovel=82 hivel=98 loop_mode=loop_continuous loop_start=71864 loop_end=138260
<region> sample=MultiAttack-C1KY.aif amp_veltrack=0  key=46 lokey=46 hikey=46 lovel=99 hivel=113 loop_mode=loop_continuous loop_start=71978 loop_end=140215
<region> sample=MultiAttack-U8HL.aif amp_veltrack=0  key=46 lokey=46 hikey=46 lovel=112 hivel=127   loop_mode=loop_continuous loop_start=21276 loop_end=51553
<region> sample=MultiAttack-OWN1.aif amp_veltrack=0  key=47 lokey=47 hikey=47 lovel=1 hivel=18 loop_mode=loop_continuous loop_start=11567 loop_end=138358
<region> sample=MultiAttack-BH2D.aif amp_veltrack=0  key=47 lokey=47 hikey=47 lovel=19 hivel=35 loop_mode=loop_continuous loop_start=12932 loop_end=141099
<region> sample=MultiAttack-ZWQ4.aif amp_veltrack=0  key=47 lokey=47 hikey=47 lovel=35 hivel=50 loop_mode=loop_continuous loop_start=3633 loop_end=136744
<region> sample=MultiAttack-OZGC.aif amp_veltrack=0  key=47 lokey=47 hikey=47 lovel=50 hivel=65 loop_mode=loop_continuous loop_start=89360 loop_end=133501
<region> sample=MultiAttack-FOB1.aif amp_veltrack=0  key=47 lokey=47 hikey=47 lovel=66 hivel=81 loop_mode=loop_continuous loop_start=6479 loop_end=134695
<region> sample=MultiAttack-G6ZV.aif amp_veltrack=0  key=47 lokey=47 hikey=47 lovel=82 hivel=98 loop_mode=loop_continuous loop_start=92655 loop_end=128099
<region> sample=MultiAttack-IOWH.aif amp_veltrack=0  key=47 lokey=47 hikey=47 lovel=99 hivel=113 loop_mode=loop_continuous loop_start=82972 loop_end=143229
<region> sample=MultiAttack-31V9.aif amp_veltrack=0  key=47 lokey=47 hikey=47 lovel=112 hivel=127   loop_mode=loop_continuous loop_start=32568 loop_end=97039
<region> sample=MultiAttack-307E.aif amp_veltrack=0  key=48 lokey=48 hikey=48 lovel=1 hivel=18 loop_mode=loop_continuous loop_start=26132 loop_end=142507
<region> sample=MultiAttack-LZ7R.aif amp_veltrack=0  key=48 lokey=48 hikey=48 lovel=19 hivel=35 loop_mode=loop_continuous loop_start=87243 loop_end=124944
<region> sample=MultiAttack-NT0F.aif amp_veltrack=0  key=48 lokey=48 hikey=48 lovel=35 hivel=50 loop_mode=loop_continuous loop_start=96876 loop_end=133267
<region> sample=MultiAttack-72C4.aif amp_veltrack=0  key=48 lokey=48 hikey=48 lovel=50 hivel=65 loop_mode=loop_continuous loop_start=20668 loop_end=142967
<region> sample=MultiAttack-DKQA.aif amp_veltrack=0  key=48 lokey=48 hikey=48 lovel=66 hivel=81 loop_mode=loop_continuous loop_start=5274 loop_end=135030
<region> sample=MultiAttack-JW25.aif amp_veltrack=0  key=48 lokey=48 hikey=48 lovel=82 hivel=98 loop_mode=loop_continuous loop_start=40050 loop_end=122027
<region> sample=MultiAttack-K8ZY.aif amp_veltrack=0  key=48 lokey=48 hikey=48 lovel=99 hivel=113 loop_mode=loop_continuous loop_start=17624 loop_end=142649
<region> sample=MultiAttack-OG7D.aif amp_veltrack=0  key=48 lokey=48 hikey=48 lovel=112 hivel=127   loop_mode=loop_continuous loop_start=20782 loop_end=83262
<region> sample=MultiAttack-WPGL.aif amp_veltrack=0  key=49 lokey=49 hikey=49 lovel=1 hivel=18 loop_mode=loop_continuous loop_start=15038 loop_end=131707
<region> sample=MultiAttack-L9UY.aif amp_veltrack=0  key=49 lokey=49 hikey=49 lovel=19 hivel=35 loop_mode=loop_continuous loop_start=270 loop_end=39056
<region> sample=MultiAttack-D57D.aif amp_veltrack=0  key=49 lokey=49 hikey=49 lovel=35 hivel=50 loop_mode=loop_continuous loop_start=27229 loop_end=142642
<region> sample=MultiAttack-IR7J.aif amp_veltrack=0  key=49 lokey=49 hikey=49 lovel=50 hivel=65 loop_mode=loop_continuous loop_start=64416 loop_end=122439
<region> sample=MultiAttack-RJZN.aif amp_veltrack=0  key=49 lokey=49 hikey=49 lovel=66 hivel=81 loop_mode=loop_continuous loop_start=25042 loop_end=144211
<region> sample=MultiAttack-EDK9.aif amp_veltrack=0  key=49 lokey=49 hikey=49 lovel=82 hivel=98 loop_mode=loop_continuous loop_start=13568 loop_end=46032
<region> sample=MultiAttack-W3L2.aif amp_veltrack=0  key=49 lokey=49 hikey=49 lovel=99 hivel=113 loop_mode=loop_continuous loop_start=56877 loop_end=90851
<region> sample=MultiAttack-CEYL.aif amp_veltrack=0  key=49 lokey=49 hikey=49 lovel=112 hivel=127   loop_mode=loop_continuous loop_start=11616 loop_end=41368
<region> sample=MultiAttack-QID3.aif amp_veltrack=0  key=50 lokey=50 hikey=50 lovel=1 hivel=18 loop_mode=loop_continuous loop_start=21592 loop_end=130526
<region> sample=MultiAttack-JV9L.aif amp_veltrack=0  key=50 lokey=50 hikey=50 lovel=19 hivel=35 loop_mode=loop_continuous loop_start=27570 loop_end=135939
<region> sample=MultiAttack-AI1Q.aif amp_veltrack=0  key=50 lokey=50 hikey=50 lovel=35 hivel=50 loop_mode=loop_continuous loop_start=36280 loop_end=144055
<region> sample=MultiAttack-DS6H.aif amp_veltrack=0  key=50 lokey=50 hikey=50 lovel=50 hivel=65 loop_mode=loop_continuous loop_start=71611 loop_end=124629
<region> sample=MultiAttack-PT1P.aif amp_veltrack=0  key=50 lokey=50 hikey=50 lovel=66 hivel=81 loop_mode=loop_continuous loop_start=35104 loop_end=142896
<region> sample=MultiAttack-RYNH.aif amp_veltrack=0  key=50 lokey=50 hikey=50 lovel=82 hivel=98 loop_mode=loop_continuous loop_start=78448 loop_end=112644
<region> sample=MultiAttack-PAAA.aif amp_veltrack=0  key=50 lokey=50 hikey=50 lovel=99 hivel=113 loop_mode=loop_continuous loop_start=69615 loop_end=105546
<region> sample=MultiAttack-BJCF.aif amp_veltrack=0  key=50 lokey=50 hikey=50 lovel=112 hivel=127   loop_mode=loop_continuous loop_start=49808 loop_end=85764
<region> sample=MultiAttack-ZHYD.aif amp_veltrack=0  key=51 lokey=51 hikey=51 lovel=1 hivel=18 loop_mode=loop_continuous loop_start=33176 loop_end=134905
<region> sample=MultiAttack-Z92K.aif amp_veltrack=0  key=51 lokey=51 hikey=51 lovel=19 hivel=35 loop_mode=loop_continuous loop_start=35093 loop_end=134601
<region> sample=MultiAttack-UBF9.aif amp_veltrack=0  key=51 lokey=51 hikey=51 lovel=35 hivel=50 loop_mode=loop_continuous loop_start=35969 loop_end=137692
<region> sample=MultiAttack-OKZL.aif amp_veltrack=0  key=51 lokey=51 hikey=51 lovel=50 hivel=65 loop_mode=loop_continuous loop_start=39263 loop_end=140423
<region> sample=MultiAttack-9NI9.aif amp_veltrack=0  key=51 lokey=51 hikey=51 lovel=66 hivel=81 loop_mode=loop_continuous loop_start=39946 loop_end=142770
<region> sample=MultiAttack-7DHH.aif amp_veltrack=0  key=51 lokey=51 hikey=51 lovel=82 hivel=98 loop_mode=loop_continuous loop_start=71502 loop_end=102113
<region> sample=MultiAttack-2LZB.aif amp_veltrack=0  key=51 lokey=51 hikey=51 lovel=99 hivel=113 loop_mode=loop_continuous loop_start=40756 loop_end=73616
<region> sample=MultiAttack-GO37.aif amp_veltrack=0  key=51 lokey=51 hikey=51 lovel=112 hivel=127   loop_mode=loop_continuous loop_start=12012 loop_end=41484
<region> sample=MultiAttack-ZASN.aif amp_veltrack=0  key=52 lokey=52 hikey=52 lovel=1 hivel=18 loop_mode=loop_continuous loop_start=46399 loop_end=140322
<region> sample=MultiAttack-Q2UH.aif amp_veltrack=0  key=52 lokey=52 hikey=52 lovel=19 hivel=35 loop_mode=loop_continuous loop_start=35602 loop_end=130057
<region> sample=MultiAttack-VF3H.aif amp_veltrack=0  key=52 lokey=52 hikey=52 lovel=35 hivel=50 loop_mode=loop_continuous loop_start=45113 loop_end=142687
<region> sample=MultiAttack-WO7M.aif amp_veltrack=0  key=52 lokey=52 hikey=52 lovel=50 hivel=65 loop_mode=loop_continuous loop_start=46192 loop_end=142744
<region> sample=MultiAttack-XIFE.aif amp_veltrack=0  key=52 lokey=52 hikey=52 lovel=66 hivel=81 loop_mode=loop_continuous loop_start=46706 loop_end=144269
<region> sample=MultiAttack-MV12.aif amp_veltrack=0  key=52 lokey=52 hikey=52 lovel=82 hivel=98 loop_mode=loop_continuous loop_start=36374 loop_end=69666
<region> sample=MultiAttack-8FE1.aif amp_veltrack=0  key=52 lokey=52 hikey=52 lovel=99 hivel=113 loop_mode=loop_continuous loop_start=90198 loop_end=137971
<region> sample=MultiAttack-8SMN.aif amp_veltrack=0  key=52 lokey=52 hikey=52 lovel=112 hivel=127   loop_mode=loop_continuous loop_start=36917 loop_end=132488
<region> sample=MultiAttack-54K4.aif amp_veltrack=0  key=53 lokey=53 hikey=53 lovel=1 hivel=18 loop_mode=loop_continuous loop_start=29637 loop_end=121736
<region> sample=MultiAttack-G205.aif amp_veltrack=0  key=53 lokey=53 hikey=53 lovel=19 hivel=35 loop_mode=loop_continuous loop_start=30529 loop_end=121152
<region> sample=MultiAttack-2XO1.aif amp_veltrack=0  key=53 lokey=53 hikey=53 lovel=35 hivel=50 loop_mode=loop_continuous loop_start=21137 loop_end=112257
<region> sample=MultiAttack-EAEL.aif amp_veltrack=0  key=53 lokey=53 hikey=53 lovel=50 hivel=65 loop_mode=loop_continuous loop_start=55088 loop_end=143247
<region> sample=MultiAttack-PFDR.aif amp_veltrack=0  key=53 lokey=53 hikey=53 lovel=66 hivel=81 loop_mode=loop_continuous loop_start=45840 loop_end=136959
<region> sample=MultiAttack-RI4E.aif amp_veltrack=0  key=53 lokey=53 hikey=53 lovel=82 hivel=98 loop_mode=loop_continuous loop_start=9891 loop_end=138424
<region> sample=MultiAttack-H8SJ.aif amp_veltrack=0  key=53 lokey=53 hikey=53 lovel=99 hivel=113 loop_mode=loop_continuous loop_start=51269 loop_end=84986
<region> sample=MultiAttack-U2TY.aif amp_veltrack=0  key=53 lokey=53 hikey=53 lovel=112 hivel=127   loop_mode=loop_continuous loop_start=8793 loop_end=40925
<region> sample=MultiAttack-X38U.aif amp_veltrack=0  key=54 lokey=54 hikey=54 lovel=1 hivel=18 loop_mode=loop_continuous loop_start=15487 loop_end=101481
<region> sample=MultiAttack-WVD4.aif amp_veltrack=0  key=54 lokey=54 hikey=54 lovel=19 hivel=35 loop_mode=loop_continuous loop_start=49245 loop_end=136643
<region> sample=MultiAttack-WU68.aif amp_veltrack=0  key=54 lokey=54 hikey=54 lovel=35 hivel=50 loop_mode=loop_continuous loop_start=57057 loop_end=142586
<region> sample=MultiAttack-O5XT.aif amp_veltrack=0  key=54 lokey=54 hikey=54 lovel=50 hivel=65 loop_mode=loop_continuous loop_start=53525 loop_end=139520
<region> sample=MultiAttack-KYWL.aif amp_veltrack=0  key=54 lokey=54 hikey=54 lovel=66 hivel=81 loop_mode=loop_continuous loop_start=44715 loop_end=128858
<region> sample=MultiAttack-RBH7.aif amp_veltrack=0  key=54 lokey=54 hikey=54 lovel=82 hivel=98 loop_mode=loop_continuous loop_start=51629 loop_end=139502
<region> sample=MultiAttack-6C0F.aif amp_veltrack=0  key=54 lokey=54 hikey=54 lovel=99 hivel=113 loop_mode=loop_continuous loop_start=75103 loop_end=142465
<region> sample=MultiAttack-0LB3.aif amp_veltrack=0  key=54 lokey=54 hikey=54 lovel=112 hivel=127   loop_mode=loop_continuous loop_start=7474 loop_end=49522
<region> sample=MultiAttack-T281.aif amp_veltrack=0  key=55 lokey=55 hikey=55 lovel=1 hivel=18 loop_mode=loop_continuous loop_start=29810 loop_end=114045
<region> sample=MultiAttack-P2R0.aif amp_veltrack=0  key=55 lokey=55 hikey=55 lovel=19 hivel=35 loop_mode=loop_continuous loop_start=25466 loop_end=106202
<region> sample=MultiAttack-NUWF.aif amp_veltrack=0  key=55 lokey=55 hikey=55 lovel=35 hivel=50 loop_mode=loop_continuous loop_start=25329 loop_end=106495
<region> sample=MultiAttack-1MJJ.aif amp_veltrack=0  key=55 lokey=55 hikey=55 lovel=50 hivel=65 loop_mode=loop_continuous loop_start=37717 loop_end=119761
<region> sample=MultiAttack-5WH5.aif amp_veltrack=0  key=55 lokey=55 hikey=55 lovel=66 hivel=81 loop_mode=loop_continuous loop_start=48967 loop_end=129711
<region> sample=MultiAttack-ACYD.aif amp_veltrack=0  key=55 lokey=55 hikey=55 lovel=82 hivel=98 loop_mode=loop_continuous loop_start=63223 loop_end=143971
<region> sample=MultiAttack-DSYE.aif amp_veltrack=0  key=55 lokey=55 hikey=55 lovel=99 hivel=113 loop_mode=loop_continuous loop_start=99729 loop_end=140917
<region> sample=MultiAttack-W3D6.aif amp_veltrack=0  key=55 lokey=55 hikey=55 lovel=112 hivel=127   loop_mode=loop_continuous loop_start=26539 loop_end=66481
<region> sample=MultiAttack-TMSZ.aif amp_veltrack=0  key=56 lokey=56 hikey=56 lovel=1 hivel=18 loop_mode=loop_continuous loop_start=19477 loop_end=97335
<region> sample=MultiAttack-I74Z.aif amp_veltrack=0  key=56 lokey=56 hikey=56 lovel=19 hivel=35 loop_mode=loop_continuous loop_start=13396 loop_end=92090
<region> sample=MultiAttack-NBH1.aif amp_veltrack=0  key=56 lokey=56 hikey=56 lovel=35 hivel=50 loop_mode=loop_continuous loop_start=14384 loop_end=90191
<region> sample=MultiAttack-1YUT.aif amp_veltrack=0  key=56 lokey=56 hikey=56 lovel=50 hivel=65 loop_mode=loop_continuous loop_start=38765 loop_end=116622
<region> sample=MultiAttack-F5PD.aif amp_veltrack=0  key=56 lokey=56 hikey=56 lovel=66 hivel=81 loop_mode=loop_continuous loop_start=64418 loop_end=141440
<region> sample=MultiAttack-M5MI.aif amp_veltrack=0  key=56 lokey=56 hikey=56 lovel=82 hivel=98 loop_mode=loop_continuous loop_start=63432 loop_end=137987
<region> sample=MultiAttack-IODD.aif amp_veltrack=0  key=56 lokey=56 hikey=56 lovel=99 hivel=113 loop_mode=loop_continuous loop_start=67753 loop_end=141475
<region> sample=MultiAttack-ATGA.aif amp_veltrack=0  key=56 lokey=56 hikey=56 lovel=112 hivel=127   loop_mode=loop_continuous loop_start=20769 loop_end=58661
<region> sample=MultiAttack-328E.aif amp_veltrack=0  key=57 lokey=57 hikey=57 lovel=1 hivel=18 loop_mode=loop_continuous loop_start=33909 loop_end=106621
<region> sample=MultiAttack-2R1Z.aif amp_veltrack=0  key=57 lokey=57 hikey=57 lovel=19 hivel=35 loop_mode=loop_continuous loop_start=23259 loop_end=94015
<region> sample=MultiAttack-1BV0.aif amp_veltrack=0  key=57 lokey=57 hikey=57 lovel=35 hivel=50 loop_mode=loop_continuous loop_start=56501 loop_end=129202
<region> sample=MultiAttack-FJKO.aif amp_veltrack=0  key=57 lokey=57 hikey=57 lovel=50 hivel=65 loop_mode=loop_continuous loop_start=82714 loop_end=119070
<region> sample=MultiAttack-XEPL.aif amp_veltrack=0  key=57 lokey=57 hikey=57 lovel=66 hivel=81 loop_mode=loop_continuous loop_start=65832 loop_end=135415
<region> sample=MultiAttack-YPK9.aif amp_veltrack=0  key=57 lokey=57 hikey=57 lovel=82 hivel=98 loop_mode=loop_continuous loop_start=54694 loop_end=128197
<region> sample=MultiAttack-N47B.aif amp_veltrack=0  key=57 lokey=57 hikey=57 lovel=99 hivel=113 loop_mode=loop_continuous loop_start=71716 loop_end=143652
<region> sample=MultiAttack-9CLF.aif amp_veltrack=0  key=57 lokey=57 hikey=57 lovel=112 hivel=127   loop_mode=loop_continuous loop_start=30538 loop_end=67297
<region> sample=MultiAttack-AHAQ.aif amp_veltrack=0  key=58 lokey=58 hikey=58 lovel=1 hivel=18 loop_mode=loop_continuous loop_start=33656 loop_end=101179
<region> sample=MultiAttack-LNKK.aif amp_veltrack=0  key=58 lokey=58 hikey=58 lovel=19 hivel=35 loop_mode=loop_continuous loop_start=65464 loop_end=132980
<region> sample=MultiAttack-KQMG.aif amp_veltrack=0  key=58 lokey=58 hikey=58 lovel=35 hivel=50 loop_mode=loop_continuous loop_start=22824 loop_end=90348
<region> sample=MultiAttack-C2BF.aif amp_veltrack=0  key=58 lokey=58 hikey=58 lovel=50 hivel=65 loop_mode=loop_continuous loop_start=51913 loop_end=119803
<region> sample=MultiAttack-OOZF.aif amp_veltrack=0  key=58 lokey=58 hikey=58 lovel=66 hivel=81 loop_mode=loop_continuous loop_start=42004 loop_end=110270
<region> sample=MultiAttack-ZX7R.aif amp_veltrack=0  key=58 lokey=58 hikey=58 lovel=82 hivel=98 loop_mode=loop_continuous loop_start=56265 loop_end=124529
<region> sample=MultiAttack-7XSC.aif amp_veltrack=0  key=58 lokey=58 hikey=58 lovel=99 hivel=113 loop_mode=loop_continuous loop_start=104210 loop_end=141279
<region> sample=MultiAttack-45DP.aif amp_veltrack=0  key=58 lokey=58 hikey=58 lovel=112 hivel=127   loop_mode=loop_continuous loop_start=39842 loop_end=73633
<region> sample=MultiAttack-HVMK.aif amp_veltrack=0  key=59 lokey=59 hikey=59 lovel=1 hivel=18 loop_mode=loop_continuous loop_start=50619 loop_end=115050
<region> sample=MultiAttack-A8NI.aif amp_veltrack=0  key=59 lokey=59 hikey=59 lovel=19 hivel=35 loop_mode=loop_continuous loop_start=67434 loop_end=130806
<region> sample=MultiAttack-HXZI.aif amp_veltrack=0  key=59 lokey=59 hikey=59 lovel=35 hivel=50 loop_mode=loop_continuous loop_start=23402 loop_end=87836
<region> sample=MultiAttack-G0B6.aif amp_veltrack=0  key=59 lokey=59 hikey=59 lovel=50 hivel=65 loop_mode=loop_continuous loop_start=76721 loop_end=140106
<region> sample=MultiAttack-TMFD.aif amp_veltrack=0  key=59 lokey=59 hikey=59 lovel=66 hivel=81 loop_mode=loop_continuous loop_start=68938 loop_end=132321
<region> sample=MultiAttack-D2JI.aif amp_veltrack=0  key=59 lokey=59 hikey=59 lovel=82 hivel=98 loop_mode=loop_continuous loop_start=70521 loop_end=135299
<region> sample=MultiAttack-O0K6.aif amp_veltrack=0  key=59 lokey=59 hikey=59 lovel=99 hivel=113 loop_mode=loop_continuous loop_start=79559 loop_end=144335
<region> sample=MultiAttack-0C7Y.aif amp_veltrack=0  key=59 lokey=59 hikey=59 lovel=112 hivel=127   loop_mode=loop_continuous loop_start=17235 loop_end=49964
<region> sample=MultiAttack-T7QW.aif amp_veltrack=0  key=60 lokey=60 hikey=60 lovel=1 hivel=18 loop_mode=loop_continuous loop_start=80600 loop_end=142063
<region> sample=MultiAttack-OAQU.aif amp_veltrack=0  key=60 lokey=60 hikey=60 lovel=19 hivel=35 loop_mode=loop_continuous loop_start=34681 loop_end=94833
<region> sample=MultiAttack-DRGW.aif amp_veltrack=0  key=60 lokey=60 hikey=60 lovel=35 hivel=50 loop_mode=loop_continuous loop_start=35721 loop_end=96205
<region> sample=MultiAttack-KLHR.aif amp_veltrack=0  key=60 lokey=60 hikey=60 lovel=50 hivel=65 loop_mode=loop_continuous loop_start=46160 loop_end=106643
<region> sample=MultiAttack-VF7Y.aif amp_veltrack=0  key=60 lokey=60 hikey=60 lovel=66 hivel=81 loop_mode=loop_continuous loop_start=74865 loop_end=136653
<region> sample=MultiAttack-NYL9.aif amp_veltrack=0  key=60 lokey=60 hikey=60 lovel=82 hivel=98 loop_mode=loop_continuous loop_start=71063 loop_end=131882
<region> sample=MultiAttack-MYY5.aif amp_veltrack=0  key=60 lokey=60 hikey=60 lovel=99 hivel=113 loop_mode=loop_continuous loop_start=81971 loop_end=142460
<region> sample=MultiAttack-0QK1.aif amp_veltrack=0  key=60 lokey=60 hikey=60 lovel=112 hivel=127   loop_mode=loop_continuous loop_start=27011 loop_end=57095
<region> sample=MultiAttack-5G1X.aif amp_veltrack=0  key=61 lokey=61 hikey=61 lovel=1 hivel=18 loop_mode=loop_continuous loop_start=38614 loop_end=96633
<region> sample=MultiAttack-FXFI.aif amp_veltrack=0  key=61 lokey=61 hikey=61 lovel=19 hivel=35 loop_mode=loop_continuous loop_start=69551 loop_end=126951
<region> sample=MultiAttack-HFV4.aif amp_veltrack=0  key=61 lokey=61 hikey=61 lovel=35 hivel=50 loop_mode=loop_continuous loop_start=67096 loop_end=123866
<region> sample=MultiAttack-GWNP.aif amp_veltrack=0  key=61 lokey=61 hikey=61 lovel=50 hivel=65 loop_mode=loop_continuous loop_start=64134 loop_end=123699
<region> sample=MultiAttack-N5V8.aif amp_veltrack=0  key=61 lokey=61 hikey=61 lovel=66 hivel=81 loop_mode=loop_continuous loop_start=63348 loop_end=119820
<region> sample=MultiAttack-5V4A.aif amp_veltrack=0  key=61 lokey=61 hikey=61 lovel=82 hivel=98 loop_mode=loop_continuous loop_start=77749 loop_end=132972
<region> sample=MultiAttack-X3WP.aif amp_veltrack=0  key=61 lokey=61 hikey=61 lovel=99 hivel=113 loop_mode=loop_continuous loop_start=72849 loop_end=130255
<region> sample=MultiAttack-3407.aif amp_veltrack=0  key=61 lokey=61 hikey=61 lovel=112 hivel=127   loop_mode=loop_continuous loop_start=10123 loop_end=67507
<region> sample=MultiAttack-ACUP.aif amp_veltrack=0  key=62 lokey=62 hikey=62 lovel=1 hivel=18 loop_mode=loop_continuous loop_start=22251 loop_end=76718
<region> sample=MultiAttack-0XK8.aif amp_veltrack=0  key=62 lokey=62 hikey=62 lovel=19 hivel=35 loop_mode=loop_continuous loop_start=91862 loop_end=144289
<region> sample=MultiAttack-MBFS.aif amp_veltrack=0  key=62 lokey=62 hikey=62 lovel=35 hivel=50 loop_mode=loop_continuous loop_start=72928 loop_end=127396
<region> sample=MultiAttack-LIZB.aif amp_veltrack=0  key=62 lokey=62 hikey=62 lovel=50 hivel=65 loop_mode=loop_continuous loop_start=69521 loop_end=122815
<region> sample=MultiAttack-QCB8.aif amp_veltrack=0  key=62 lokey=62 hikey=62 lovel=66 hivel=81 loop_mode=loop_continuous loop_start=64454 loop_end=118628
<region> sample=MultiAttack-F0U5.aif amp_veltrack=0  key=62 lokey=62 hikey=62 lovel=82 hivel=98 loop_mode=loop_continuous loop_start=87308 loop_end=142366
<region> sample=MultiAttack-POBQ.aif amp_veltrack=0  key=62 lokey=62 hikey=62 lovel=99 hivel=113 loop_mode=loop_continuous loop_start=88192 loop_end=141785
<region> sample=MultiAttack-LH8K.aif amp_veltrack=0  key=62 lokey=62 hikey=62 lovel=112 hivel=127   loop_mode=loop_continuous loop_start=15198 loop_end=71426
<region> sample=MultiAttack-X6TX.aif amp_veltrack=0  key=63 lokey=63 hikey=63 lovel=1 hivel=18 loop_mode=loop_continuous loop_start=38085 loop_end=89223
<region> sample=MultiAttack-MXVN.aif amp_veltrack=0  key=63 lokey=63 hikey=63 lovel=19 hivel=35 loop_mode=loop_continuous loop_start=55044 loop_end=105636
<region> sample=MultiAttack-63MC.aif amp_veltrack=0  key=63 lokey=63 hikey=63 lovel=35 hivel=50 loop_mode=loop_continuous loop_start=23301 loop_end=73603
<region> sample=MultiAttack-OV47.aif amp_veltrack=0  key=63 lokey=63 hikey=63 lovel=50 hivel=65 loop_mode=loop_continuous loop_start=37946 loop_end=141880
<region> sample=MultiAttack-PTB2.aif amp_veltrack=0  key=63 lokey=63 hikey=63 lovel=66 hivel=81 loop_mode=loop_continuous loop_start=62364 loop_end=113774
<region> sample=MultiAttack-D0CU.aif amp_veltrack=0  key=63 lokey=63 hikey=63 lovel=82 hivel=98 loop_mode=loop_continuous loop_start=77725 loop_end=128859
<region> sample=MultiAttack-QDLZ.aif amp_veltrack=0  key=63 lokey=63 hikey=63 lovel=99 hivel=113 loop_mode=loop_continuous loop_start=79970 loop_end=131107
<region> sample=MultiAttack-HK2W.aif amp_veltrack=0  key=63 lokey=63 hikey=63 lovel=112 hivel=127   loop_mode=loop_continuous loop_start=15862 loop_end=66447
<region> sample=MultiAttack-ZBZZ.aif amp_veltrack=0  key=64 lokey=64 hikey=64 lovel=1 hivel=18 loop_mode=loop_continuous loop_start=29691 loop_end=126738
<region> sample=MultiAttack-BAFH.aif amp_veltrack=0  key=64 lokey=64 hikey=64 lovel=19 hivel=35 loop_mode=loop_continuous loop_start=84628 loop_end=131068
<region> sample=MultiAttack-B9H4.aif amp_veltrack=0  key=64 lokey=64 hikey=64 lovel=35 hivel=50 loop_mode=loop_continuous loop_start=89172 loop_end=137439
<region> sample=MultiAttack-CSKG.aif amp_veltrack=0  key=64 lokey=64 hikey=64 lovel=50 hivel=65 loop_mode=loop_continuous loop_start=94405 loop_end=142408
<region> sample=MultiAttack-N7I7.aif amp_veltrack=0  key=64 lokey=64 hikey=64 lovel=66 hivel=81 loop_mode=loop_continuous loop_start=39895 loop_end=87898
<region> sample=MultiAttack-NH04.aif amp_veltrack=0  key=64 lokey=64 hikey=64 lovel=82 hivel=98 loop_mode=loop_continuous loop_start=96085 loop_end=144357
<region> sample=MultiAttack-6P6U.aif amp_veltrack=0  key=64 lokey=64 hikey=64 lovel=99 hivel=113 loop_mode=loop_continuous loop_start=85061 loop_end=133332
<region> sample=MultiAttack-9S6P.aif amp_veltrack=0  key=64 lokey=64 hikey=64 lovel=112 hivel=127   loop_mode=loop_continuous loop_start=15228 loop_end=63745
<region> sample=MultiAttack-0K1T.aif amp_veltrack=0  key=65 lokey=65 hikey=65 lovel=1 hivel=18 loop_mode=loop_continuous loop_start=47787 loop_end=94076
<region> sample=MultiAttack-D8BE.aif amp_veltrack=0  key=65 lokey=65 hikey=65 lovel=19 hivel=35 loop_mode=loop_continuous loop_start=14502 loop_end=60797
<region> sample=MultiAttack-C9S9.aif amp_veltrack=0  key=65 lokey=65 hikey=65 lovel=35 hivel=50 loop_mode=loop_continuous loop_start=36792 loop_end=81849
<region> sample=MultiAttack-2HAG.aif amp_veltrack=0  key=65 lokey=65 hikey=65 lovel=50 hivel=65 loop_mode=loop_continuous loop_start=74905 loop_end=120708
<region> sample=MultiAttack-Y56A.aif amp_veltrack=0  key=65 lokey=65 hikey=65 lovel=66 hivel=81 loop_mode=loop_continuous loop_start=66523 loop_end=111585
<region> sample=MultiAttack-2CIP.aif amp_veltrack=0  key=65 lokey=65 hikey=65 lovel=82 hivel=98 loop_mode=loop_continuous loop_start=99225 loop_end=144293
<region> sample=MultiAttack-9H6T.aif amp_veltrack=0  key=65 lokey=65 hikey=65 lovel=99 hivel=113 loop_mode=loop_continuous loop_start=79791 loop_end=126089
<region> sample=MultiAttack-7RG5.aif amp_veltrack=0  key=65 lokey=65 hikey=65 lovel=112 hivel=127   loop_mode=loop_continuous loop_start=16304 loop_end=62345
<region> sample=MultiAttack-LFIL.aif amp_veltrack=0  key=66 lokey=66 hikey=66 lovel=1 hivel=18 loop_mode=loop_continuous loop_start=32913 loop_end=74989
<region> sample=MultiAttack-WIAT.aif amp_veltrack=0  key=66 lokey=66 hikey=66 lovel=19 hivel=35 loop_mode=loop_continuous loop_start=97213 loop_end=140672
<region> sample=MultiAttack-HCTI.aif amp_veltrack=0  key=66 lokey=66 hikey=66 lovel=35 hivel=50 loop_mode=loop_continuous loop_start=36635 loop_end=80796
<region> sample=MultiAttack-NWXZ.aif amp_veltrack=0  key=66 lokey=66 hikey=66 lovel=50 hivel=65 loop_mode=loop_continuous loop_start=61628 loop_end=103698
<region> sample=MultiAttack-SIEM.aif amp_veltrack=0  key=66 lokey=66 hikey=66 lovel=66 hivel=81 loop_mode=loop_continuous loop_start=66571 loop_end=109796
<region> sample=MultiAttack-WU8C.aif amp_veltrack=0  key=66 lokey=66 hikey=66 lovel=82 hivel=98 loop_mode=loop_continuous loop_start=90036 loop_end=133031
<region> sample=MultiAttack-UF16.aif amp_veltrack=0  key=66 lokey=66 hikey=66 lovel=99 hivel=113 loop_mode=loop_continuous loop_start=98212 loop_end=141209
<region> sample=MultiAttack-CYFF.aif amp_veltrack=0  key=66 lokey=66 hikey=66 lovel=112 hivel=127   loop_mode=loop_continuous loop_start=104539 loop_end=141259
<region> sample=MultiAttack-OLOV.aif amp_veltrack=0  key=67 lokey=67 hikey=67 lovel=1 hivel=18 loop_mode=loop_continuous loop_start=13320 loop_end=54348
<region> sample=MultiAttack-YZ9A.aif amp_veltrack=0  key=67 lokey=67 hikey=67 lovel=19 hivel=35 loop_mode=loop_continuous loop_start=50960 loop_end=133007
<region> sample=MultiAttack-X4JZ.aif amp_veltrack=0  key=67 lokey=67 hikey=67 lovel=35 hivel=50 loop_mode=loop_continuous loop_start=44889 loop_end=85914
<region> sample=MultiAttack-E1CB.aif amp_veltrack=0  key=67 lokey=67 hikey=67 lovel=50 hivel=65 loop_mode=loop_continuous loop_start=98442 loop_end=138372
<region> sample=MultiAttack-UNS8.aif amp_veltrack=0  key=67 lokey=67 hikey=67 lovel=66 hivel=81 loop_mode=loop_continuous loop_start=100262 loop_end=140198
<region> sample=MultiAttack-M2KF.aif amp_veltrack=0  key=67 lokey=67 hikey=67 lovel=82 hivel=98 loop_mode=loop_continuous loop_start=70862 loop_end=111663
<region> sample=MultiAttack-4DQ9.aif amp_veltrack=0  key=67 lokey=67 hikey=67 lovel=99 hivel=113 loop_mode=loop_continuous loop_start=81988 loop_end=120832
<region> sample=MultiAttack-Y03O.aif amp_veltrack=0  key=67 lokey=67 hikey=67 lovel=112 hivel=127   loop_mode=loop_continuous loop_start=13562 loop_end=53688
<region> sample=MultiAttack-KZTY.aif amp_veltrack=0  key=68 lokey=68 hikey=68 lovel=1 hivel=18 loop_mode=loop_continuous loop_start=91309 loop_end=130235
<region> sample=MultiAttack-YYC9.aif amp_veltrack=0  key=68 lokey=68 hikey=68 lovel=19 hivel=35 loop_mode=loop_continuous loop_start=84987 loop_end=122879
<region> sample=MultiAttack-ELE9.aif amp_veltrack=0  key=68 lokey=68 hikey=68 lovel=35 hivel=50 loop_mode=loop_continuous loop_start=40863 loop_end=115619
<region> sample=MultiAttack-L35G.aif amp_veltrack=0  key=68 lokey=68 hikey=68 lovel=50 hivel=65 loop_mode=loop_continuous loop_start=105200 loop_end=142887
<region> sample=MultiAttack-CBN6.aif amp_veltrack=0  key=68 lokey=68 hikey=68 lovel=66 hivel=81 loop_mode=loop_continuous loop_start=57278 loop_end=95178
<region> sample=MultiAttack-W354.aif amp_veltrack=0  key=68 lokey=68 hikey=68 lovel=82 hivel=98 loop_mode=loop_continuous loop_start=79132 loop_end=117851
<region> sample=MultiAttack-GLAG.aif amp_veltrack=0  key=68 lokey=68 hikey=68 lovel=99 hivel=113 loop_mode=loop_continuous loop_start=106462 loop_end=144359
<region> sample=MultiAttack-904X.aif amp_veltrack=0  key=68 lokey=68 hikey=68 lovel=112 hivel=127   loop_mode=loop_continuous loop_start=27524 loop_end=65439
<region> sample=MultiAttack-7I6S.aif amp_veltrack=0  key=69 lokey=69 hikey=69 lovel=1 hivel=18 loop_mode=loop_continuous loop_start=58913 loop_end=94874
<region> sample=MultiAttack-BK0V.aif amp_veltrack=0  key=69 lokey=69 hikey=69 lovel=19 hivel=35 loop_mode=loop_continuous loop_start=35741 loop_end=71510
<region> sample=MultiAttack-KH3K.aif amp_veltrack=0  key=69 lokey=69 hikey=69 lovel=35 hivel=50 loop_mode=loop_continuous loop_start=94402 loop_end=130168
<region> sample=MultiAttack-FW0M.aif amp_veltrack=0  key=69 lokey=69 hikey=69 lovel=50 hivel=65 loop_mode=loop_continuous loop_start=53059 loop_end=89027
<region> sample=MultiAttack-OJVJ.aif amp_veltrack=0  key=69 lokey=69 hikey=69 lovel=66 hivel=81 loop_mode=loop_continuous loop_start=102194 loop_end=137181
<region> sample=MultiAttack-X1HZ.aif amp_veltrack=0  key=69 lokey=69 hikey=69 lovel=82 hivel=98 loop_mode=loop_continuous loop_start=82005 loop_end=117973
<region> sample=MultiAttack-DSAN.aif amp_veltrack=0  key=69 lokey=69 hikey=69 lovel=99 hivel=113 loop_mode=loop_continuous loop_start=98342 loop_end=133330
<region> sample=MultiAttack-R7IE.aif amp_veltrack=0  key=69 lokey=69 hikey=69 lovel=112 hivel=127   loop_mode=loop_continuous loop_start=16608 loop_end=53337
<region> sample=MultiAttack-RCZH.aif amp_veltrack=0  key=70 lokey=70 hikey=70 lovel=1 hivel=18 loop_mode=loop_continuous loop_start=99683 loop_end=133266
<region> sample=MultiAttack-AY3L.aif amp_veltrack=0  key=70 lokey=70 hikey=70 lovel=19 hivel=35 loop_mode=loop_continuous loop_start=68506 loop_end=103368
<region> sample=MultiAttack-RBGB.aif amp_veltrack=0  key=70 lokey=70 hikey=70 lovel=35 hivel=50 loop_mode=loop_continuous loop_start=80049 loop_end=113807
<region> sample=MultiAttack-MCNL.aif amp_veltrack=0  key=70 lokey=70 hikey=70 lovel=50 hivel=65 loop_mode=loop_continuous loop_start=99227 loop_end=132986
<region> sample=MultiAttack-4DYY.aif amp_veltrack=0  key=70 lokey=70 hikey=70 lovel=66 hivel=81 loop_mode=loop_continuous loop_start=75616 loop_end=109560
<region> sample=MultiAttack-9POA.aif amp_veltrack=0  key=70 lokey=70 hikey=70 lovel=82 hivel=98 loop_mode=loop_continuous loop_start=77787 loop_end=111549
<region> sample=MultiAttack-714Z.aif amp_veltrack=0  key=70 lokey=70 hikey=70 lovel=99 hivel=113 loop_mode=loop_continuous loop_start=105200 loop_end=138958
<region> sample=MultiAttack-21PT.aif amp_veltrack=0  key=70 lokey=70 hikey=70 lovel=112 hivel=127   loop_mode=loop_continuous loop_start=32544 loop_end=66510
<region> sample=MultiAttack-APTZ.aif amp_veltrack=0  key=71 lokey=71 hikey=71 lovel=1 hivel=18 loop_mode=loop_continuous loop_start=77784 loop_end=110520
<region> sample=MultiAttack-2MCG.aif amp_veltrack=0  key=71 lokey=71 hikey=71 lovel=19 hivel=35 loop_mode=loop_continuous loop_start=90186 loop_end=122918
<region> sample=MultiAttack-F9C1.aif amp_veltrack=0  key=71 lokey=71 hikey=71 lovel=35 hivel=50 loop_mode=loop_continuous loop_start=26676 loop_end=58544
<region> sample=MultiAttack-2QJT.aif amp_veltrack=0  key=71 lokey=71 hikey=71 lovel=50 hivel=65 loop_mode=loop_continuous loop_start=41915 loop_end=74650
<region> sample=MultiAttack-Y8J6.aif amp_veltrack=0  key=71 lokey=71 hikey=71 lovel=66 hivel=81 loop_mode=loop_continuous loop_start=72803 loop_end=104494
<region> sample=MultiAttack-3ZBZ.aif amp_veltrack=0  key=71 lokey=71 hikey=71 lovel=82 hivel=98 loop_mode=loop_continuous loop_start=61299 loop_end=94029
<region> sample=MultiAttack-OZQ0.aif amp_veltrack=0  key=71 lokey=71 hikey=71 lovel=99 hivel=113 loop_mode=loop_continuous loop_start=91148 loop_end=123021
<region> sample=MultiAttack-QDPC.aif amp_veltrack=0  key=71 lokey=71 hikey=71 lovel=112 hivel=127   loop_mode=loop_continuous loop_start=17519 loop_end=50251
<region> sample=MultiAttack-X36L.aif amp_veltrack=0  key=72 lokey=72 hikey=72 lovel=1 hivel=18 loop_mode=loop_continuous loop_start=80801 loop_end=110546
<region> sample=MultiAttack-H40I.aif amp_veltrack=0  key=72 lokey=72 hikey=72 lovel=19 hivel=35 loop_mode=loop_continuous loop_start=15313 loop_end=46043
<region> sample=MultiAttack-OT7R.aif amp_veltrack=0  key=72 lokey=72 hikey=72 lovel=35 hivel=50 loop_mode=loop_continuous loop_start=104351 loop_end=134759
<region> sample=MultiAttack-AR3X.aif amp_veltrack=0  key=72 lokey=72 hikey=72 lovel=50 hivel=65 loop_mode=loop_continuous loop_start=63450 loop_end=93689
<region> sample=MultiAttack-76OW.aif amp_veltrack=0  key=72 lokey=72 hikey=72 lovel=66 hivel=81 loop_mode=loop_continuous loop_start=45209 loop_end=135270
<region> sample=MultiAttack-O64T.aif amp_veltrack=0  key=72 lokey=72 hikey=72 lovel=82 hivel=98 loop_mode=loop_continuous loop_start=69550 loop_end=100120
<region> sample=MultiAttack-UK1F.aif amp_veltrack=0  key=72 lokey=72 hikey=72 lovel=99 hivel=113 loop_mode=loop_continuous loop_start=106342 loop_end=137077
<region> sample=MultiAttack-6O8C.aif amp_veltrack=0  key=72 lokey=72 hikey=72 lovel=112 hivel=127   loop_mode=loop_continuous loop_start=17876 loop_end=49255
